   General
      Complete name : Rassmeshi.komika.E7.IPTVRip.avi
      Format : AVI
      Format/Info : Audio Video Interleave
      File size : 1.25 GiB
      Duration : 45mn 4s
      Overall bit rate : 3 981 Kbps
      Writing library : MPlayer
   Video #0
      ID : 0
      Format : MPEG-4 Visual
      Format profile : Simple@L1
      Format settings, BVOP : No
      Format settings, QPel : No
      Format settings, GMC : No warppoints
      Format settings, Matrix : Default (H.263)
      Codec ID : DX50
      Codec ID/Hint : DivX 5
      Duration : 45mn 4s
      Bit rate : 3 713 Kbps
      Width : 720 pixels
      Height : 576 pixels
      Display aspect ratio : 5:4
      Frame rate : 25.000 fps
      Standard : PAL
      Resolution : 24 bits
      Colorimetry : 4:2:0
      Scan type : Interlaced
      Scan order : Top Field First
      Bits/(Pixel*Frame) : 0.358
      Stream size : 1.17 GiB (93%)
      Writing library : Lavc52.30.1
   Audio #1
      ID : 1
      Format : MPEG Audio
      Format version : Version 1
      Format profile : Layer 3
      Codec ID : 55
      Codec ID/Hint : MP3
      Duration : 45mn 4s
      Bit rate mode : Constant
      Bit rate : 256 Kbps
      Channel(s) : 2 channels
      Sampling rate : 44.1 KHz
      Resolution : 16 bits
      Stream size : 82.5 MiB (6%)
      Alignment : Aligned on interleaves
      Interleave, duration : 26 ms (0.65 video frame)
      Interleave, preload duration : 809 ms

(c) tyt and tam